<svg width="4027" height="1566" xmlns="http://www.w3.org/2000/svg" xmlns:xlink="http://www.w3.org/1999/xlink" xml:space="preserve" overflow="hidden"><g transform="translate(-199 -453)"><rect x="1598" y="652" width="616" height="316" stroke="#C55A11" stroke-width="10.3125" stroke-miterlimit="8" fill="none"/><text fill="#C55A11" font-family="LXGW WenKai Mono,LXGW WenKai Mono_MSFontService,sans-serif" font-weight="400" font-size="83" transform="matrix(1 0 0 1 1658.59 840)">异常检测模块</text><rect x="1598" y="1590" width="616" height="317" stroke="#C55A11" stroke-width="10.3125" stroke-miterlimit="8" fill="none"/><text fill="#C55A11" font-family="LXGW WenKai Mono,LXGW WenKai Mono_MSFontService,sans-serif" font-weight="400" font-size="83" transform="matrix(1 0 0 1 1699.84 1729)">大模型总结</text><text fill="#C55A11" font-family="LXGW WenKai Mono,LXGW WenKai Mono_MSFontService,sans-serif" font-weight="400" font-size="83" transform="matrix(1 0 0 1 1823.59 1828)">模块</text><path d="M199 951 584 951 584 1268.33 437.331 1415 199 1415Z" fill="#A9D18E" fill-rule="evenodd"/><path d="M437.331 1415 466.665 1297.66 584 1268.33Z" fill="#88A872" fill-rule="evenodd"/><text fill="#385723" font-family="LXGW WenKai Mono,LXGW WenKai Mono_MSFontService,sans-serif" font-weight="700" font-size="92" transform="matrix(1 0 0 1 281.803 1233)">论文</text><path d="M785.5 1970.5C744.631 1970.5 711.5 1964.98 711.5 1958.17L711.5 1246.83C711.5 1240.02 678.369 1234.5 637.5 1234.5 678.369 1234.5 711.5 1228.98 711.5 1222.17L711.5 510.833C711.5 504.021 744.631 498.5 785.5 498.5" stroke="#2F5597" stroke-width="6.875" stroke-miterlimit="8" fill="none" fill-rule="evenodd"/><text fill="#2F5597" font-family="LXGW WenKai Mono,LXGW WenKai Mono_MSFontService,sans-serif" font-weight="400" font-size="92" transform="matrix(1 0 0 1 978.532 1761)">评论</text><text fill="#2F5597" font-family="LXGW WenKai Mono,LXGW WenKai Mono_MSFontService,sans-serif" font-weight="400" font-size="92" transform="matrix(1 0 0 1 814.835 568)">相关性变量</text><text fill="#2F5597" font-family="LXGW WenKai Mono,LXGW WenKai Mono_MSFontService,sans-serif" font-weight="400" font-size="92" transform="matrix(1 0 0 1 1273.17 568)">1</text><text fill="#2F5597" font-family="LXGW WenKai Mono,LXGW WenKai Mono_MSFontService,sans-serif" font-weight="400" font-size="92" transform="matrix(1 0 0 1 814.835 796)">相关性变量</text><text fill="#2F5597" font-family="LXGW WenKai Mono,LXGW WenKai Mono_MSFontService,sans-serif" font-weight="400" font-size="92" transform="matrix(1 0 0 1 1273.17 796)">2</text><text fill="#2F5597" font-family="LXGW WenKai Mono,LXGW WenKai Mono_MSFontService,sans-serif" font-weight="400" font-size="92" transform="matrix(1 0 0 1 814.835 1041)">相关性变量</text><text fill="#2F5597" font-family="LXGW WenKai Mono,LXGW WenKai Mono_MSFontService,sans-serif" font-weight="400" font-size="92" transform="matrix(1 0 0 1 1273.17 1041)">3</text><text fill="#2F5597" font-family="LXGW WenKai Mono,LXGW WenKai Mono_MSFontService,sans-serif" font-weight="400" font-size="92" transform="matrix(1 0 0 1 814.835 1433)">相关性变量</text><text fill="#2F5597" font-family="LXGW WenKai Mono,LXGW WenKai Mono_MSFontService,sans-serif" font-weight="400" font-size="92" transform="matrix(1 0 0 1 1273.17 1433)">n</text><path d="M1053 1129C1053 1119.61 1060.39 1112 1069.5 1112 1078.61 1112 1086 1119.61 1086 1129 1086 1138.39 1078.61 1146 1069.5 1146 1060.39 1146 1053 1138.39 1053 1129Z" fill="#8FAADC" fill-rule="evenodd"/><path d="M1053 1218.5C1053 1209.39 1060.39 1202 1069.5 1202 1078.61 1202 1086 1209.39 1086 1218.5 1086 1227.61 1078.61 1235 1069.5 1235 1060.39 1235 1053 1227.61 1053 1218.5Z" fill="#8FAADC" fill-rule="evenodd"/><path d="M1053 1303.5C1053 1294.39 1060.39 1287 1069.5 1287 1078.61 1287 1086 1294.39 1086 1303.5 1086 1312.61 1078.61 1320 1069.5 1320 1060.39 1320 1053 1312.61 1053 1303.5Z" fill="#8FAADC" fill-rule="evenodd"/><path d="M148 893C107.131 893 74.0001 887.479 74.0001 880.668L74.0001 310.015C74.0001 303.204 40.8691 297.682 0 297.682 40.8691 297.682 74.0001 292.161 74.0001 285.35L74.0001 12.3325C74.0001 5.52143 107.131-5.32926e-15 148-7.10568e-15" stroke="#2F5597" stroke-width="6.875" stroke-miterlimit="8" fill="none" fill-rule="evenodd" transform="matrix(-1 0 0 1 1528.5 522.5)"/><path d="M1253 1705.75 1456.5 1705.75 1456.5 1663 1542 1748.5 1456.5 1834 1456.5 1791.25 1253 1791.25Z" fill="#8FAADC" fill-rule="evenodd"/><path d="M2270 774 2473 774 2473 731 2559 817 2473 903 2473 860 2270 860Z" fill="#8FAADC" fill-rule="evenodd"/><path d="M2270 1705.75 2473.5 1705.75 2473.5 1663 2559 1748.5 2473.5 1834 2473.5 1791.25 2270 1791.25Z" fill="#8FAADC" fill-rule="evenodd"/><text fill="#2F5597" font-family="LXGW WenKai Mono,LXGW WenKai Mono_MSFontService,sans-serif" font-weight="400" font-size="92" transform="matrix(1 0 0 1 2589.68 690)">异常度量</text><path d="M2717 793.188 2768.19 793.188 2768.19 742 2782.81 742 2782.81 793.188 2834 793.188 2834 807.813 2782.81 807.813 2782.81 859 2768.19 859 2768.19 807.813 2717 807.813Z" fill="#8FAADC" fill-rule="evenodd"/><text fill="#2F5597" font-family="LXGW WenKai Mono,LXGW WenKai Mono_MSFontService,sans-serif" font-weight="400" font-size="92" transform="matrix(1 0 0 1 2682.24 999)">阈值</text><text fill="#2F5597" font-family="LXGW WenKai Mono,LXGW WenKai Mono_MSFontService,sans-serif" font-weight="400" font-size="92" transform="matrix(1 0 0 1 2589.68 1650)">具体风险</text><path d="M2717 1741.19 2768.19 1741.19 2768.19 1690 2782.81 1690 2782.81 1741.19 2834 1741.19 2834 1755.81 2782.81 1755.81 2782.81 1807 2768.19 1807 2768.19 1755.81 2717 1755.81Z" fill="#8FAADC" fill-rule="evenodd"/><text fill="#2F5597" font-family="LXGW WenKai Mono,LXGW WenKai Mono_MSFontService,sans-serif" font-weight="400" font-size="92" transform="matrix(1 0 0 1 2589.68 1940)">风险程度</text><path d="M148 1332C107.13 1332 73.9992 1326.48 73.9992 1319.67L74.0006 637.08C74.0006 630.269 40.8694 624.748-1.05989e-14 624.748 40.8694 624.748 74.0006 619.227 74.0006 612.416L74.0006 12.3324C74.0006 5.52139 107.132-2.64971e-15 148.001-5.29942e-15" stroke="#2F5597" stroke-width="6.875" stroke-miterlimit="8" fill="none" fill-rule="evenodd" transform="matrix(-1 0 0 1 3158.5 609.5)"/><rect x="3228" y="498" width="452" height="1472" stroke="#C55A11" stroke-width="10.3125" stroke-miterlimit="8" fill="none"/><text fill="#C55A11" font-family="LXGW WenKai Mono,LXGW WenKai Mono_MSFontService,sans-serif" font-weight="400" font-size="83" transform="matrix(1 0 0 1 3330.51 1214)">大模型</text><text fill="#C55A11" font-family="LXGW WenKai Mono,LXGW WenKai Mono_MSFontService,sans-serif" font-weight="400" font-size="83" transform="matrix(1 0 0 1 3289.26 1313)">决策模块</text><path d="M3724 1234.18 3868.5 1234.18 3868.5 1188 3954 1273.5 3868.5 1359 3868.5 1312.82 3724 1312.82Z" fill="#8FAADC" fill-rule="evenodd"/><text fill="#2F5597" font-family="LXGW WenKai Mono,LXGW WenKai Mono_MSFontService,sans-serif" font-weight="400" font-size="92" transform="matrix(1 0 0 1 3987.5 1242)">最终</text><text fill="#2F5597" font-family="LXGW WenKai Mono,LXGW WenKai Mono_MSFontService,sans-serif" font-weight="400" font-size="92" transform="matrix(1 0 0 1 3987.5 1352)">结果</text></g></svg>